<svg version="1.0" xmlns="http://www.w3.org/2000/svg"
 width="600.000000pt" height="804.000000pt" viewBox="0 0 600.000000 804.000000"
 preserveAspectRatio="xMidYMid meet">

<g transform="translate(0.000000,804.000000) scale(0.100000,-0.100000)"
fill="#000000" stroke="none">
<path d="M1695 7666 c-85 -17 -149 -44 -235 -101 -75 -50 -184 -159 -229 -230
-140 -221 -141 -546 -1 -760 51 -78 189 -213 261 -254 92 -53 200 -82 324 -88
144 -6 230 12 355 74 79 39 111 63 186 138 97 96 142 164 178 272 l23 68 554
0 c512 -1 558 -2 612 -19 71 -23 137 -80 169 -144 21 -44 23 -59 23 -227 0
-176 -1 -181 -27 -230 -14 -28 -46 -69 -70 -92 -65 -59 -99 -63 -609 -64 -239
0 -571 -4 -739 -9 -279 -7 -310 -9 -368 -30 -144 -51 -295 -183 -356 -310 -50
-104 -59 -176 -54 -433 6 -245 14 -288 79 -389 39 -60 154 -167 228 -212 88
-54 138 -65 328 -73 l172 -8 -94 -103 c-100 -109 -113 -137 -101 -210 3 -20
14 -48 24 -62 28 -39 98 -70 157 -70 l50 0 273 273 272 272 0 71 0 70 -257
255 c-147 145 -274 262 -295 272 -69 32 -130 16 -190 -52 -32 -34 -38 -48 -38
-85 0 -69 14 -93 113 -196 l92 -95 -58 -3 c-32 -2 -99 2 -149 7 -124 14 -171
39 -225 119 -50 75 -57 117 -51 310 4 120 7 143 28 185 27 53 95 121 138 138
17 8 241 14 642 20 917 12 944 13 1015 38 187 66 367 272 395 451 13 87 13
435 -1 502 -33 159 -166 322 -334 410 l-91 47 -628 8 -629 8 -23 68 c-36 108
-81 175 -178 273 -74 73 -108 99 -176 133 -47 23 -110 48 -140 57 -79 21 -260
27 -345 10z m308 -359 c302 -138 308 -559 9 -700 -61 -29 -76 -32 -162 -32
-86 0 -101 3 -161 31 -85 41 -138 89 -177 161 -61 117 -64 243 -7 359 48 97
162 188 260 205 77 14 177 4 238 -24z"/>
<path d="M3935 5425 c-146 -31 -260 -100 -381 -227 -132 -140 -188 -286 -187
-483 2 -305 170 -559 446 -674 154 -64 361 -69 516 -12 192 70 340 207 426
394 42 92 55 162 55 308 0 98 -4 131 -25 196 -36 114 -88 196 -190 298 -75 76
-106 99 -185 138 -53 26 -126 54 -165 62 -86 18 -229 18 -310 0z m312 -360
c76 -33 152 -110 192 -192 27 -53 31 -73 31 -141 0 -175 -76 -304 -220 -371
-48 -23 -68 -26 -160 -26 -93 0 -111 3 -160 26 -111 53 -185 147 -216 272 -15
58 -15 78 -5 134 29 157 144 287 285 324 62 16 189 3 253 -26z"/>
<path d="M925 2476 c-37 -17 -80 -62 -94 -99 -25 -66 -2 -177 45 -219 37 -32
80 -39 285 -47 249 -9 262 -14 257 -89 -5 -72 -13 -74 -330 -80 l-268 -5 0
-53 0 -54 289 0 c181 0 300 4 318 11 98 37 143 176 91 279 -33 65 -54 72 -263
82 -246 13 -263 15 -292 44 -20 20 -24 32 -19 57 14 68 45 75 364 76 l212 1 0
55 0 55 -282 0 c-214 -1 -290 -4 -313 -14z"/>
<path d="M1650 2160 l0 -330 60 0 60 0 0 330 0 330 -60 0 -60 0 0 -330z"/>
<path d="M2037 2463 c-8 -16 -44 -136 -81 -268 -37 -132 -76 -268 -86 -302
l-18 -63 62 0 62 0 59 220 c33 121 62 220 65 220 3 0 43 -86 89 -191 105 -237
116 -254 161 -254 32 0 38 5 62 50 15 28 62 128 105 222 44 99 80 167 84 160
7 -11 119 -410 119 -422 0 -3 27 -5 60 -5 33 0 60 4 60 9 0 11 -123 462 -156
569 l-25 83 -45 -3 -46 -3 -85 -190 c-46 -104 -91 -204 -98 -221 -33 -74 -35
-71 -146 181 l-104 234 -42 1 c-36 0 -44 -4 -56 -27z"/>
<path d="M2920 2161 l0 -331 60 0 60 0 0 275 0 275 138 -1 c298 -1 342 -16
342 -120 0 -73 -5 -86 -44 -106 -24 -13 -68 -18 -193 -21 l-163 -4 0 -61 0
-60 183 5 c161 5 187 8 225 27 87 44 135 159 113 269 -14 72 -38 110 -90 147
l-43 30 -294 3 -294 3 0 -330z"/>
<path d="M3720 2160 l0 -330 290 0 290 0 0 55 0 55 -222 2 -223 3 -3 273 -2
272 -65 0 -65 0 0 -330z"/>
<path d="M4370 2160 l0 -330 60 0 60 0 0 275 0 275 143 -1 c78 0 178 -4 222
-8 68 -8 82 -13 102 -35 43 -50 26 -178 -28 -207 -11 -6 -96 -15 -187 -19 -92
-5 -168 -9 -169 -9 -2 -1 -3 -21 -3 -46 l0 -45 133 -1 132 0 75 -89 75 -89 89
0 90 -1 -93 95 -93 95 50 47 c60 57 76 104 70 209 -4 91 -41 156 -107 191 -43
23 -50 23 -333 23 l-288 0 0 -330z"/>
<path d="M640 1045 l0 -335 55 0 55 0 0 275 0 275 200 0 c233 0 261 -7 286
-67 25 -58 0 -161 -43 -178 -18 -7 -231 -24 -310 -25 l-43 0 0 -45 0 -45 128
-1 127 0 75 -89 c41 -48 84 -90 95 -94 11 -3 53 -6 94 -6 l75 0 -99 100 -98
100 40 29 c67 48 100 151 83 257 -13 79 -49 130 -113 160 -51 23 -57 24 -329
24 l-278 0 0 -335z"/>
<path d="M1690 1371 c-52 -11 -90 -34 -137 -83 -67 -69 -88 -125 -87 -238 0
-81 4 -103 26 -151 32 -71 86 -124 157 -158 54 -25 63 -26 221 -25 196 1 239
14 315 95 70 74 85 116 85 233 0 126 -13 166 -72 232 -80 87 -114 98 -308 101
-91 1 -181 -2 -200 -6z m348 -130 c79 -41 114 -99 114 -194 0 -81 -32 -142
-97 -182 -48 -30 -51 -30 -180 -29 -151 2 -192 12 -233 59 -70 79 -80 185 -26
272 47 78 89 93 252 93 111 0 139 -3 170 -19z"/>
<path d="M2360 1228 c0 -181 14 -324 35 -376 39 -93 120 -136 280 -146 219
-15 339 31 392 149 15 34 18 78 21 283 l4 242 -61 0 -60 0 -3 -229 c-3 -215
-4 -231 -24 -258 -42 -56 -77 -68 -204 -68 -100 0 -121 3 -162 23 -76 37 -82
58 -86 315 l-4 217 -64 0 -64 0 0 -152z"/>
<path d="M3160 1320 l0 -60 125 0 125 0 0 -275 0 -275 65 0 65 0 0 275 0 275
125 0 125 0 0 60 0 60 -315 0 -315 0 0 -60z"/>
<path d="M3860 1045 l0 -335 305 0 305 0 0 60 0 60 -245 0 -245 0 0 215 0 215
245 0 245 0 0 60 0 60 -305 0 -305 0 0 -335z"/>
<path d="M4560 1045 l0 -335 60 0 60 0 0 275 0 275 193 0 c218 0 260 -8 282
-50 23 -45 19 -121 -8 -161 -27 -41 -49 -45 -249 -55 l-138 -6 0 -44 0 -44
129 0 129 0 73 -86 c41 -47 84 -90 97 -95 13 -5 56 -9 95 -9 l71 0 -64 68
c-36 37 -78 82 -94 99 l-29 33 46 40 c35 31 50 54 62 93 18 61 19 135 3 190
-17 55 -82 122 -133 136 -24 7 -146 11 -312 11 l-273 0 0 -335z"/>
<path d="M4060 1045 l0 -45 190 0 190 0 0 45 0 45 -190 0 -190 0 0 -45z"/>
</g>
</svg>
